<svg id="Layer_1" data-name="Layer 1" xmlns="http://www.w3.org/2000/svg" viewBox="0 0 373.16 399"><defs><style>.cls-1{fill:#ed1e79;}</style></defs><title>washroom</title><circle class="cls-1" cx="76.74" cy="50.63" r="50.63"/><path class="cls-1" d="M121.22,139.91V376.34a23.07,23.07,0,0,1-23,23H82.94a23.07,23.07,0,0,1-23-23V139.91a23.07,23.07,0,0,1,23-23H98.22A23.07,23.07,0,0,1,121.22,139.91Z" transform="translate(-13.84 -1)"/><path class="cls-1" d="M167.24,298.34c1.8,10.86-5.73,19.73-16.73,19.73H30.84c-11,0-18.53-8.87-16.73-19.73L40.87,136.83C42.67,126,53.14,117.1,64.14,117.1h53.07c11,0,21.47,8.88,23.27,19.73Z" transform="translate(-13.84 -1)"/><path class="cls-1" d="M211.81,7V394a6,6,0,0,1-6,6h-4a6,6,0,0,1-6-6V7a6,6,0,0,1,6-6h4A6,6,0,0,1,211.81,7Z" transform="translate(-13.84 -1)"/><circle class="cls-1" cx="305.88" cy="50.96" r="50.63"/><path class="cls-1" d="M350.36,140.24V376.67a23.07,23.07,0,0,1-23,23H312.08a23.07,23.07,0,0,1-23-23V140.24a23.07,23.07,0,0,1,23-23h15.28A23.07,23.07,0,0,1,350.36,140.24Z" transform="translate(-13.84 -1)"/><path class="cls-1" d="M386.89,235.9A17.65,17.65,0,0,1,369,255.79H270.64a17.65,17.65,0,0,1-17.89-19.89l10.44-98.58a22.79,22.79,0,0,1,22.1-19.89h69.06a22.79,22.79,0,0,1,22.1,19.89Z" transform="translate(-13.84 -1)"/></svg>